<svg width="59" height="27" viewBox="0 0 59 27" fill="none" xmlns="http://www.w3.org/2000/svg">
<g clip-path="url(#clip0_2_16)">
<path d="M31.7297 20.14L30 5.4H26.8108C26.4324 3.145 24.4324 1.44 22 1.44C19.5675 1.44 17.5675 3.145 17.1892 5.4H14L12.2702 20.14C12.1621 20.965 12.4865 21.46 12.7567 21.79C13.027 22.065 13.5135 22.45 14.4324 22.45H29.5675C30.2702 22.45 30.8648 22.23 31.2432 21.735C31.6216 21.35 31.7838 20.745 31.7297 20.14ZM22 3.64C23.1892 3.64 24.2162 4.41 24.5405 5.4H19.4054C19.7838 4.355 20.8108 3.64 22 3.64ZM14.4324 20.25L15.9459 7.6H17.1351V9.25C17.1351 9.855 17.6216 10.35 18.2162 10.35C18.8108 10.35 19.2973 9.855 19.2973 9.25V7.6H24.7027V9.25C24.7027 9.855 25.1892 10.35 25.7838 10.35C26.3783 10.35 26.8648 9.855 26.8648 9.25V7.6H28.054L29.5675 20.25H14.4324Z" fill="black"/>
</g>
<path d="M44.5732 13.4517C44.5732 15.0386 44.3022 16.2178 43.7603 16.9893C43.2183 17.7607 42.3711 18.1465 41.2188 18.1465C40.0811 18.1465 39.2388 17.7705 38.6919 17.0186C38.145 16.2617 37.8618 15.1338 37.8423 13.6348V11.8257C37.8423 10.2583 38.1133 9.09375 38.6553 8.33203C39.1973 7.57031 40.0469 7.18945 41.2041 7.18945C42.3516 7.18945 43.1963 7.55811 43.7383 8.29541C44.2803 9.02783 44.5586 10.1606 44.5732 11.6938V13.4517ZM43.2183 11.5986C43.2183 10.4512 43.0571 9.61621 42.7349 9.09375C42.4126 8.56641 41.9023 8.30273 41.2041 8.30273C40.5107 8.30273 40.0054 8.56396 39.688 9.08643C39.3706 9.60889 39.207 10.4121 39.1973 11.4961V13.6641C39.1973 14.8164 39.3633 15.6685 39.6953 16.2202C40.0322 16.7671 40.54 17.0405 41.2188 17.0405C41.8877 17.0405 42.3833 16.7817 42.7056 16.2642C43.0327 15.7466 43.2036 14.9312 43.2183 13.8179V11.5986Z" fill="#B4604D"/>
<defs>
<clipPath id="clip0_2_16">
<rect width="20" height="22" fill="white" transform="translate(12 1)"/>
</clipPath>
</defs>
</svg>
